{"title":"Warrior.2011.BRRIP.720P.H264-ZEKTORM","uid":6920132,"size":3303170276,"categoryP":"video","categoryS":"hd___movies","magnet":"?xt=urn:btih:cd929104c4e18fd4788cd4b1a1e9b5c93dd97bbe&amp;dn=Warrior.2011.BRRIP.720P.H264-ZEKTORM&amp;tr=udp%3A%2F%2Ftracker.openbittorrent.com%3A80&amp;tr=udp%3A%2F%2Fopen.demonii.com%3A1337&amp;tr=udp%3A%2F%2Ftracker.coppersurfer.tk%3A6969&amp;tr=udp%3A%2F%2Fexodus.desync.com%3A6969","seeders":1,"leechers":0,"uploader":"blowley","files":4,"time":1325181997,"description":"Title                            : Warrior\nYear                             : 2011\nGenre                            : Action | Drama | Sport\niMDB URL                         : http://www.imdb.com/title/tt1291584/\n\nComplete name                    : Warrior.2011.BRRIP.720P.H264-ZEKTORM.mp4\nFormat                           : MPEG-4\nFormat profile                   : Base Media\nCodec ID                         : isom\nFile size                        : 3.08 GiB\nDuration                         : 2h 19mn\nOverall bit rate                 : 3150 Kbps\nSubtitles                        : English (Format: srt)\nVideo\nID                               : 1\nFormat                           : AVC\nFormat/Info                      : Advanced Video Codec\nFormat profile                   : &lt;a class=&quot;__cf_email__&quot; href=&quot;/cdn-cgi/l/email-protection&quot; data-cfemail=&quot;90d8f9f7f8d0dca4bea1&quot;&gt;[email&amp;#160;protected]&lt;/a&gt;&lt;script cf-hash='f9e31' type=&quot;text/javascript&quot;&gt;\n/* &lt;![CDATA[ */!function(){try{var t=&quot;currentScript&quot;in document?document.currentScript:function(){for(var t=document.getElementsByTagName(&quot;script&quot;),e=t.length;e--;)if(t[e].getAttribute(&quot;cf-hash&quot;))return t[e]}();if(t&amp;&amp;t.previousSibling){var e,r,n,i,c=t.previousSibling,a=c.getAttribute(&quot;data-cfemail&quot;);if(a){for(e=&quot;&quot;,r=parseInt(a.substr(0,2),16),n=2;a.length-n;n+=2)i=parseInt(a.substr(n,2),16)^r,e+=String.fromCharCode(i);e=document.createTextNode(e),c.parentNode.replaceChild(e,c)}}}catch(u){}}();/* ]]&gt; */&lt;/script&gt;\nFormat settings, CABAC           : Yes\nFormat settings, ReFrames        : 5 frames\nCodec ID                         : avc1\nCodec ID/Info                    : Advanced Video Coding\nDuration                         : 2h 19mn\nBit rate mode                    : Variable\nBit rate                         : 2933 Kbps\nWidth                            : 1280 pixels\nHeight                           : 528 pixels\nDisplay aspect ratio             : 2.424\nFrame rate mode                  : Constant\nFrame rate                       : 23.976 fps\nResolution                       : 24 bits\nColorimetry                      : 4:2:0\nScan type                        : Progressive\nBits/(Pixel*Frame)               : 0.181\nStream size                      : 2.86 GiB (93%)\nTitle                            : Video\nWriting library                  : x264\n\nAudio\nID                               : 2\nFormat                           : AAC\nFormat/Info                      : Advanced Audio Codec\nFormat version                   : Version 4\nFormat profile                   : LC\nFormat settings, SBR             : Yes\nFormat settings, PS              : No\nCodec ID                         : 40\nDuration                         : 2h 19mn\nBit rate mode                    : Variable\nBit rate                         : 215 Kbps\nMaximum bit rate                 : 281 Kbps\nChannel(s)                       : 6 channels\nChannel positions                : Front: L C R, Rear: L R, LFE\nSampling rate                    : 48.0 KHz\nResolution                       : 16 bits\nStream size                      : 215 MiB (7%)\nTitle                            : English\nLanguage                         : English\n\n\nScreenshots:\n\n[img]http://img85.imageshack.us/img85/6078/snapw1.png[/img]\n\n[img]http://img220.imageshack.us/img220/197/snapw2.png[/img]\n","torrent":{"xt":"urn:btih:cd929104c4e18fd4788cd4b1a1e9b5c93dd97bbe","amp;dn":"Warrior.2011.BRRIP.720P.H264-ZEKTORM","amp;tr":["udp%3A%2F%2Ftracker.openbittorrent.com%3A80","udp%3A%2F%2Fopen.demonii.com%3A1337","udp%3A%2F%2Ftracker.coppersurfer.tk%3A6969","udp%3A%2F%2Fexodus.desync.com%3A6969"],"infoHash":"cd929104c4e18fd4788cd4b1a1e9b5c93dd97bbe","infoHashBuffer":{"type":"Buffer","data":[205,146,145,4,196,225,143,212,120,140,212,177,161,233,181,201,61,217,123,190]},"announce":[],"urlList":[]}}